<svg width="30" height="29" viewBox="0 0 30 29" fill="none" xmlns="http://www.w3.org/2000/svg">
<g id="Close button">
<g id="Ellipse 6">
<path d="M29.8343 14.5269C27.0131 21.7262 23.4631 28.7573 15.6038 28.7573C7.74455 28.7573 0.881836 20.9786 0.881836 13.1193C4.50995 6.54368 7.74455 0.296387 15.6038 0.296387C24.9531 2.75572 29.8343 6.66758 29.8343 14.5269Z" fill="#096BA2"/>
<path d="M29.8343 14.5269C27.0131 21.7262 23.4631 28.7573 15.6038 28.7573C7.74455 28.7573 0.881836 20.9786 0.881836 13.1193C4.50995 6.54368 7.74455 0.296387 15.6038 0.296387C24.9531 2.75572 29.8343 6.66758 29.8343 14.5269Z" fill="#2F80EC"/>
</g>
<g id="Group 37136">
<path id="Vector" d="M10.2851 19.295C10.1571 19.4274 10.1607 19.6384 10.2931 19.7664C10.4254 19.8943 10.6365 19.8907 10.7644 19.7584L20.4311 9.75838C20.559 9.62601 20.5554 9.41498 20.4231 9.28704C20.2907 9.15907 20.0797 9.16267 19.9517 9.29501L10.2851 19.295Z" fill="white"/>
<path id="Vector_2" d="M19.9517 19.7584C20.0797 19.8907 20.2907 19.8943 20.4231 19.7663C20.5554 19.6384 20.559 19.4274 20.4311 19.295L10.7644 9.29502C10.6365 9.16266 10.4254 9.15908 10.2931 9.28703C10.1607 9.41497 10.1571 9.626 10.2851 9.75836L19.9517 19.7584Z" fill="white"/>
</g>
</g>
</svg>
