<svg width="313" height="206" viewBox="0 0 313 206" fill="none" xmlns="http://www.w3.org/2000/svg">
<path d="M5.65006 2.67713C5.6359 2.5968 5.5993 2.52202 5.54444 2.4613C5.48958 2.40057 5.41865 2.35633 5.33972 2.33362L4.22785 2.01262L3.8632 0.924045C3.83737 0.846602 3.79023 0.777874 3.72709 0.725639C3.66396 0.673404 3.58735 0.639741 3.50594 0.628464C3.42453 0.617187 3.34156 0.628748 3.26642 0.661829C3.19129 0.694911 3.12698 0.748192 3.08077 0.815656L2.42964 1.76327L1.27242 1.76979C1.19021 1.77017 1.10974 1.79336 1.04013 1.83676C0.970512 1.88016 0.914528 1.94204 0.878508 2.01538C0.842489 2.08872 0.827872 2.1706 0.836312 2.25175C0.844751 2.3329 0.875911 2.41009 0.926264 2.47458L1.63648 3.38784L1.28495 4.48293C1.25983 4.56064 1.25716 4.64379 1.27726 4.72293C1.29735 4.80207 1.3394 4.87402 1.39863 4.93064C1.45786 4.98726 1.53189 5.02627 1.61234 5.04324C1.69278 5.0602 1.7764 5.05444 1.85372 5.02662L2.94291 4.63811L3.88349 5.30795C3.90823 5.32543 3.93461 5.34051 3.96227 5.35296C4.03342 5.38425 4.11163 5.39634 4.189 5.38798C4.26637 5.37962 4.34013 5.35112 4.40283 5.30537C4.46553 5.25962 4.51494 5.19826 4.54605 5.12746C4.57715 5.05667 4.58886 4.97898 4.57997 4.90226L4.54476 3.79058L5.47758 3.11008C5.54468 3.06152 5.59651 2.99504 5.62705 2.9184C5.65758 2.84176 5.66556 2.7581 5.65006 2.67713Z" fill="#FFD100"/>
<path d="M244.757 78.2074C244.822 78.1385 244.867 78.0527 244.886 77.9599C244.905 77.867 244.897 77.7708 244.863 77.6821L244.202 75.9219L245.289 74.382C245.344 74.3044 245.375 74.2131 245.381 74.1185C245.386 74.0239 245.364 73.9297 245.318 73.8466C245.273 73.7635 245.204 73.6948 245.121 73.6482C245.038 73.6017 244.943 73.5791 244.848 73.583L242.956 73.6636L241.817 72.1622C241.76 72.0866 241.682 72.0285 241.593 71.9945C241.504 71.9604 241.407 71.9517 241.313 71.9694C241.219 71.9871 241.133 72.0304 241.062 72.0945C240.992 72.1586 240.941 72.2409 240.916 72.3322L240.408 74.1415L238.618 74.7522C238.527 74.7828 238.447 74.838 238.387 74.9114C238.326 74.9848 238.288 75.0735 238.275 75.1676C238.263 75.2616 238.277 75.3573 238.316 75.4437C238.356 75.5301 238.419 75.6038 238.498 75.6565L240.076 76.6948L240.108 78.5728C240.11 78.6675 240.138 78.7599 240.19 78.8395C240.242 78.919 240.315 78.9827 240.401 79.0232C240.487 79.0637 240.583 79.0795 240.678 79.0688C240.773 79.0581 240.863 79.0213 240.938 78.9625L242.421 77.7934L244.231 78.3436C244.323 78.3721 244.42 78.3744 244.513 78.3503C244.606 78.3263 244.691 78.2767 244.757 78.2074Z" fill="#FFD100"/>
<path d="M160.447 80.4618C160.512 80.3929 160.557 80.3071 160.576 80.2143C160.595 80.1214 160.587 80.0252 160.554 79.9365L159.892 78.1763L160.979 76.6364C161.034 76.5588 161.066 76.4675 161.071 76.3729C161.076 76.2783 161.055 76.1841 161.009 76.101C160.963 76.0179 160.894 75.9492 160.811 75.9026C160.728 75.856 160.634 75.8335 160.538 75.8374L158.646 75.918L157.508 74.4166C157.45 74.341 157.372 74.2829 157.283 74.2489C157.194 74.2148 157.097 74.2061 157.003 74.2238C156.91 74.2414 156.823 74.2848 156.752 74.3489C156.682 74.413 156.631 74.4953 156.606 74.5866L156.098 76.3959L154.308 77.0066C154.218 77.0372 154.137 77.0923 154.077 77.1658C154.016 77.2392 153.978 77.3279 153.965 77.422C153.953 77.516 153.967 77.6117 154.007 77.6981C154.046 77.7845 154.109 77.8582 154.189 77.9109L155.766 78.9492L155.798 80.8272C155.8 80.9219 155.828 81.0143 155.88 81.0939C155.932 81.1734 156.005 81.2371 156.091 81.2776C156.177 81.3181 156.273 81.3339 156.368 81.3232C156.463 81.3125 156.553 81.2757 156.628 81.2169L158.111 80.0478L159.921 80.598C160.013 80.6265 160.111 80.6288 160.204 80.6047C160.297 80.5806 160.381 80.5311 160.447 80.4618Z" fill="#FFD100"/>
<path d="M146.625 204.161C146.655 204.103 146.668 204.038 146.662 203.973C146.657 203.908 146.633 203.846 146.594 203.794L145.815 202.757L146.233 201.532C146.254 201.47 146.257 201.404 146.242 201.34C146.227 201.277 146.195 201.218 146.148 201.172C146.102 201.126 146.044 201.094 145.98 201.079C145.916 201.064 145.849 201.067 145.786 201.088L144.552 201.502L143.507 200.728C143.454 200.689 143.392 200.665 143.326 200.659C143.261 200.654 143.195 200.667 143.137 200.696C143.078 200.726 143.029 200.771 142.995 200.827C142.961 200.883 142.944 200.947 142.944 201.012L142.959 202.305L141.895 203.05C141.841 203.088 141.799 203.14 141.774 203.2C141.748 203.26 141.74 203.326 141.75 203.391C141.76 203.455 141.789 203.516 141.832 203.565C141.875 203.615 141.931 203.651 141.994 203.67L143.237 204.055L143.624 205.291C143.643 205.353 143.68 205.409 143.729 205.451C143.779 205.494 143.839 205.522 143.904 205.533C143.969 205.543 144.035 205.535 144.096 205.509C144.157 205.484 144.209 205.443 144.247 205.39L145.001 204.334L146.304 204.352C146.37 204.353 146.435 204.336 146.492 204.302C146.549 204.269 146.595 204.22 146.625 204.161Z" fill="#FFD100"/>
<path d="M299.316 140.259C299.346 140.201 299.359 140.136 299.353 140.071C299.348 140.006 299.324 139.944 299.285 139.892L298.506 138.855L298.924 137.63C298.945 137.568 298.948 137.502 298.933 137.438C298.918 137.375 298.886 137.316 298.839 137.27C298.793 137.224 298.734 137.192 298.67 137.177C298.607 137.162 298.54 137.165 298.477 137.186L297.242 137.6L296.198 136.826C296.145 136.787 296.083 136.763 296.017 136.757C295.952 136.752 295.886 136.765 295.828 136.794C295.769 136.824 295.72 136.869 295.686 136.925C295.652 136.981 295.634 137.045 295.635 137.11L295.65 138.403L294.586 139.148C294.532 139.186 294.49 139.238 294.465 139.298C294.439 139.358 294.431 139.424 294.441 139.489C294.451 139.553 294.48 139.614 294.523 139.663C294.566 139.713 294.622 139.749 294.685 139.769L295.928 140.153L296.314 141.389C296.334 141.451 296.37 141.507 296.42 141.549C296.47 141.592 296.53 141.62 296.595 141.631C296.66 141.641 296.726 141.633 296.787 141.607C296.847 141.582 296.9 141.541 296.938 141.488L297.692 140.432L298.995 140.45C299.061 140.451 299.126 140.434 299.183 140.401C299.24 140.367 299.286 140.318 299.316 140.259Z" fill="#FFD100"/>
<path d="M283.529 86.4209C283.572 86.3367 283.59 86.2422 283.582 86.148C283.574 86.0538 283.54 85.9638 283.483 85.8879L282.349 84.3782L282.96 82.5955C282.991 82.5057 282.996 82.4091 282.974 82.3167C282.953 82.2243 282.905 82.1397 282.838 82.0726C282.77 82.0055 282.685 81.9584 282.592 81.9367C282.499 81.915 282.402 81.9196 282.311 81.95L280.513 82.5529L278.993 81.4276C278.917 81.3707 278.825 81.3363 278.73 81.3283C278.635 81.3202 278.539 81.3388 278.454 81.3819C278.368 81.4251 278.297 81.491 278.248 81.5724C278.198 81.6537 278.173 81.7472 278.174 81.8422L278.197 83.7238L276.645 84.8094C276.568 84.8649 276.509 84.9403 276.473 85.0272C276.437 85.1141 276.426 85.2092 276.441 85.302C276.456 85.3947 276.497 85.4815 276.558 85.5529C276.62 85.6242 276.7 85.6772 276.79 85.7061L278.601 86.2663L279.163 88.0644C279.191 88.1553 279.244 88.2365 279.316 88.2988C279.389 88.3612 279.477 88.4022 279.572 88.4172C279.666 88.4323 279.763 88.4207 279.851 88.3839C279.94 88.3471 280.016 88.2865 280.071 88.209L281.168 86.6691L283.065 86.6951C283.16 86.6968 283.254 86.6719 283.336 86.6235C283.418 86.5751 283.485 86.5049 283.529 86.4209Z" fill="#FFD100"/>
<path d="M52.9217 193.345C52.9649 193.26 52.9835 193.166 52.9755 193.072C52.9675 192.977 52.9331 192.887 52.8763 192.811L51.7424 191.302L52.3529 189.519C52.3836 189.429 52.3884 189.333 52.3668 189.24C52.3451 189.148 52.2978 189.063 52.2303 188.996C52.1627 188.929 52.0776 188.882 51.9846 188.86C51.8915 188.839 51.7942 188.843 51.7036 188.874L49.906 189.476L48.3865 188.351C48.3098 188.294 48.2186 188.26 48.1232 188.252C48.0278 188.244 47.9321 188.262 47.8468 188.306C47.7615 188.349 47.6901 188.415 47.6407 188.496C47.5912 188.577 47.5657 188.671 47.567 188.766L47.5891 190.647L46.0374 191.733C45.9593 191.788 45.8981 191.863 45.8608 191.951C45.8236 192.038 45.8117 192.134 45.8265 192.228C45.8414 192.322 45.8823 192.41 45.9448 192.481C46.0073 192.553 46.0887 192.607 46.18 192.635L47.9914 193.195L48.553 194.994C48.5813 195.085 48.6346 195.166 48.7068 195.228C48.7791 195.29 48.8674 195.331 48.9618 195.346C49.0562 195.36 49.1529 195.349 49.241 195.312C49.3291 195.275 49.4052 195.215 49.4607 195.138L50.5577 193.598L52.455 193.624C52.5514 193.626 52.6464 193.601 52.729 193.551C52.8116 193.502 52.8784 193.43 52.9217 193.345Z" fill="#FFD100"/>
<path d="M125.56 37.7239C125.632 37.5844 125.663 37.4275 125.65 37.2712C125.637 37.1149 125.58 36.9654 125.486 36.8397L123.613 34.3481L124.623 31.4027C124.673 31.2542 124.681 31.0945 124.646 30.9417C124.61 30.7889 124.531 30.6491 124.42 30.5382C124.308 30.4272 124.167 30.3496 124.013 30.314C123.859 30.2783 123.698 30.2862 123.548 30.3367L120.58 31.3275L118.069 29.4643C117.942 29.3705 117.792 29.3137 117.634 29.3004C117.477 29.2871 117.319 29.3177 117.178 29.3889C117.037 29.46 116.919 29.5689 116.837 29.7031C116.755 29.8373 116.713 29.9915 116.715 30.1483L116.752 33.2577L114.191 35.0511C114.062 35.1418 113.962 35.2666 113.9 35.4113C113.839 35.5559 113.82 35.7147 113.845 35.8697C113.869 36.0247 113.937 36.1697 114.041 36.2884C114.144 36.407 114.279 36.4946 114.43 36.5412L117.42 37.4693L118.348 40.44C118.395 40.5898 118.483 40.7235 118.602 40.8261C118.722 40.9287 118.868 40.9962 119.024 41.0208C119.18 41.0455 119.34 41.0263 119.485 40.9655C119.631 40.9048 119.757 40.8048 119.848 40.6769L121.661 38.1385L124.795 38.1818C124.952 38.1839 125.108 38.1422 125.243 38.0613C125.379 37.9804 125.488 37.8635 125.56 37.7239Z" fill="#FFD100"/>
<path d="M58.7939 93.3016C58.8659 93.162 58.8971 93.0052 58.884 92.8489C58.8708 92.6926 58.8137 92.5431 58.7193 92.4173L56.847 89.9257L57.8563 86.9804C57.9071 86.8318 57.915 86.6721 57.8792 86.5193C57.8433 86.3665 57.765 86.2268 57.6532 86.1158C57.5414 86.0049 57.4006 85.9272 57.2466 85.8916C57.0926 85.856 56.9317 85.8639 56.782 85.9143L53.8134 86.9052L51.3026 85.0419C51.1759 84.9481 51.0253 84.8914 50.8679 84.878C50.7104 84.8647 50.5523 84.8954 50.4114 84.9665C50.2706 85.0377 50.1526 85.1465 50.0707 85.2807C49.9889 85.4149 49.9466 85.5691 49.9485 85.726L49.9855 88.8353L47.4251 90.6287C47.2961 90.7195 47.1953 90.8442 47.134 90.9889C47.0726 91.1336 47.0533 91.2924 47.0781 91.4473C47.103 91.6023 47.171 91.7473 47.2745 91.866C47.378 91.9846 47.5128 92.0722 47.6638 92.1188L50.6533 93.0469L51.5813 96.0177C51.6283 96.1674 51.7164 96.3011 51.8359 96.4038C51.9554 96.5064 52.1014 96.5738 52.2574 96.5985C52.4135 96.6231 52.5733 96.6039 52.719 96.5432C52.8647 96.4824 52.9903 96.3825 53.0817 96.2546L54.8943 93.7162L58.0281 93.7594C58.1861 93.7615 58.3415 93.7198 58.4768 93.6389C58.6121 93.558 58.722 93.4412 58.7939 93.3016Z" fill="#FFD100"/>
<path d="M312.421 188.119C312.501 187.963 312.536 187.788 312.521 187.614C312.507 187.44 312.443 187.273 312.338 187.133L310.249 184.354L311.374 181.07C311.43 180.905 311.439 180.727 311.399 180.558C311.359 180.388 311.272 180.232 311.148 180.109C311.024 179.985 310.868 179.899 310.697 179.858C310.526 179.818 310.347 179.826 310.18 179.882L306.87 180.994L304.071 178.921C303.93 178.816 303.763 178.753 303.587 178.738C303.412 178.723 303.236 178.757 303.079 178.837C302.922 178.916 302.79 179.037 302.699 179.187C302.608 179.336 302.561 179.508 302.563 179.683L302.604 183.148L299.75 185.14C299.608 185.241 299.496 185.38 299.428 185.54C299.36 185.701 299.339 185.877 299.366 186.049C299.393 186.222 299.468 186.383 299.583 186.515C299.697 186.647 299.846 186.745 300.014 186.798L303.348 187.83L304.382 191.141C304.435 191.308 304.533 191.457 304.666 191.572C304.799 191.686 304.962 191.762 305.136 191.79C305.309 191.817 305.488 191.795 305.65 191.728C305.812 191.66 305.952 191.549 306.055 191.406L308.074 188.576L311.567 188.624C311.743 188.627 311.916 188.582 312.067 188.492C312.218 188.403 312.34 188.273 312.421 188.119Z" fill="#FFD100"/>
</svg>
