<svg width="141" height="126" viewBox="0 0 141 126" fill="none" xmlns="http://www.w3.org/2000/svg">
<rect x="0.23291" y="0.382812" width="140" height="121.664" rx="18" fill="#2F80EC"/>
<path d="M102.95 107.542C101.425 104.941 100.251 102.152 99.4587 99.2479C97.7962 93.1933 93.2617 83.3081 81.4733 84.4097H61.7397C49.9513 83.3075 45.4166 93.1935 43.7545 99.2479C42.9623 102.152 41.7885 104.941 40.2632 107.542C35.5124 115.613 36.7472 121.683 36.7472 121.683H106.466C106.466 121.683 107.701 115.613 102.95 107.542Z" fill="#FFCEC7"/>
<path d="M28.9609 31.7556C28.2452 34.8509 26.777 38.9188 23.8487 40.6905C23.7696 40.7385 23.7049 40.8065 23.6612 40.8875C23.6176 40.9685 23.5965 41.0596 23.6003 41.1514C23.604 41.2432 23.6324 41.3323 23.6826 41.4096C23.7327 41.4869 23.8028 41.5494 23.8855 41.5909C26.8711 43.1124 28.4676 45.052 29.3148 50.6111C29.3325 50.7301 29.3915 50.8392 29.4816 50.9197C29.5717 51.0002 29.6873 51.0471 29.8085 51.0522C29.9297 51.0574 30.049 51.0205 30.1457 50.9479C30.2424 50.8753 30.3106 50.7716 30.3385 50.6546C31.6355 45.0305 34.3462 42.593 35.7917 41.6585C35.8685 41.6083 35.9306 41.539 35.9717 41.4574C36.0127 41.3759 36.0314 41.2851 36.0257 41.1941C36.02 41.1032 35.9902 41.0153 35.9392 40.9394C35.8883 40.8636 35.8181 40.8024 35.7356 40.762C34.1265 39.972 31.0598 37.718 29.9815 31.7784C29.9595 31.6618 29.8977 31.5563 29.8065 31.4795C29.7153 31.4027 29.6002 31.3594 29.4806 31.3567C29.3609 31.354 29.244 31.3922 29.1494 31.4648C29.0547 31.5374 28.9882 31.6401 28.9609 31.7556Z" fill="#FFD100"/>
<path d="M109.918 69.4031C109.448 72.7004 108.108 77.6702 104.295 79.3577C104.232 79.3843 104.178 79.4282 104.14 79.4842C104.101 79.5401 104.08 79.6057 104.077 79.6734C104.075 79.7411 104.093 79.808 104.127 79.8662C104.162 79.9245 104.213 79.9717 104.274 80.0023C107.537 81.6181 109.187 83.6406 110.013 90.0234C110.025 90.1065 110.065 90.1829 110.128 90.2392C110.191 90.2955 110.271 90.328 110.356 90.331C110.441 90.334 110.523 90.3073 110.59 90.2556C110.657 90.2039 110.703 90.1306 110.72 90.0485C112.016 83.305 115.301 80.7579 116.686 79.9627C116.741 79.9318 116.786 79.8871 116.817 79.8333C116.849 79.7795 116.865 79.7183 116.865 79.6561C116.865 79.5938 116.849 79.5327 116.817 79.4789C116.786 79.425 116.741 79.3804 116.686 79.3494C115.296 78.5603 111.987 76.0231 110.623 69.3819C110.606 69.3 110.561 69.2268 110.495 69.175C110.428 69.1232 110.346 69.0961 110.262 69.0987C110.177 69.1012 110.097 69.1331 110.034 69.1888C109.971 69.2445 109.93 69.3204 109.918 69.4031Z" fill="#FFD100"/>
<path d="M71.9437 82.0067L63.5195 84.2721C63.2694 84.339 63.0417 84.4706 62.8598 84.6534C62.6778 84.8362 62.5482 85.0637 62.4842 85.3125C62.4201 85.5613 62.424 85.8225 62.4954 86.0693C62.5667 86.3162 62.703 86.5398 62.8903 86.7172C65.3179 89.0449 68.5658 90.3427 71.9437 90.3348C76.4225 90.3348 79.468 87.973 81.1213 86.2032C81.2949 86.0152 81.4152 85.7851 81.4703 85.5362C81.5253 85.2873 81.5131 85.0284 81.4348 84.7857C81.3566 84.543 81.215 84.3251 81.0245 84.154C80.834 83.9829 80.6013 83.8646 80.3499 83.8112L71.9437 82.0067Z" fill="#E88B89"/>
<path d="M51.8377 57.1337C50.9982 56.2598 50.0025 55.5476 48.9011 55.0331C46.1775 53.7975 43.0156 55.555 42.547 58.5521C42.3163 60.0283 42.3907 61.9692 43.176 64.4399C45.3897 71.4034 52.9433 69.8193 52.9433 69.8193L51.8377 57.1337Z" fill="#E88B89"/>
<path d="M91.3754 57.1337C92.2149 56.2597 93.2106 55.5475 94.312 55.0331C97.0356 53.7975 100.198 55.555 100.666 58.5521C100.897 60.0283 100.822 61.9692 100.037 64.4399C97.8233 71.4034 90.2697 69.8193 90.2697 69.8193L91.3754 57.1337Z" fill="#E88B89"/>
<path d="M94.8449 43.1725C93.3324 36.5717 88.1712 28.0544 71.6065 28.0544C55.0419 28.0544 49.8807 36.5717 48.3682 43.1725C47.6924 46.2106 47.6578 49.3543 48.2668 52.4061C49.1248 56.8994 49.3021 61.4944 48.7928 66.0394C48.4602 68.6987 48.7523 71.3981 49.6463 73.927C52.1244 80.7523 57.9195 84.1849 62.9345 85.9083C68.552 87.8367 74.6608 87.8367 80.2784 85.9083C85.2934 84.1849 91.0884 80.7523 93.5666 73.927C94.4608 71.3982 94.7529 68.6987 94.4201 66.0394C93.9108 61.4944 94.0881 56.8994 94.9461 52.4061C95.5551 49.3543 95.5207 46.2106 94.8449 43.1725Z" fill="#FFCEC7"/>
<path d="M61.0474 66.8692C61.0474 66.8692 73.3707 70.4744 81.5378 63.4113C81.5378 63.4113 83.5076 70.2617 79.953 74.2689L64.6116 74.5657C62.8036 73.0629 61.3129 70.6719 61.0474 66.8692Z" fill="#383844"/>
<path d="M79.953 74.2677C78.2543 72.8055 75.524 71.8561 72.4442 71.8561C69.1608 71.8561 66.2757 72.9352 64.6134 74.565C67.8802 77.2781 72.1847 77.0961 72.1847 77.0961C76.0722 77.0961 78.4829 75.9244 79.953 74.2677Z" fill="#F95D86"/>
<path d="M73.1158 45.2526C72.8831 45.2526 72.6436 45.2443 72.3972 45.2277C71.7922 45.1886 71.1964 45.0612 70.6289 44.8496C67.892 43.8532 66.997 41.3164 67.3247 39.2442C67.4816 38.091 68.0476 37.0307 68.9213 36.2532C69.7951 35.4757 70.9195 35.0317 72.0934 35.0008C72.1844 34.9968 72.2768 34.9949 72.3704 34.9951C72.6736 34.9951 72.9643 35.1144 73.1786 35.3268C73.393 35.5392 73.5134 35.8273 73.5134 36.1277C73.5134 36.4281 73.393 36.7162 73.1786 36.9287C72.9643 37.1411 72.6736 37.2604 72.3704 37.2604C72.3089 37.2604 72.2484 37.2617 72.189 37.2641C70.5282 37.3331 69.7538 38.513 69.5832 39.5944C69.4139 40.6679 69.7925 42.1315 71.4178 42.7232C71.7637 42.8531 72.1263 42.9342 72.4949 42.9644C72.5063 42.9644 72.5279 42.9658 72.5392 42.9666C77.5082 43.3108 78.0348 39.0243 78.0784 38.5342C78.3981 35.319 77.7484 32.912 76.1489 31.3614C73.4538 28.7493 68.8314 29.2701 68.7846 29.2755C68.4845 29.3111 68.1823 29.2275 67.9442 29.0429C67.7061 28.8583 67.5516 28.5877 67.5143 28.2905C67.477 27.9932 67.5601 27.6934 67.7454 27.4567C67.9306 27.2199 68.203 27.0656 68.5028 27.0274C68.7364 26.9984 74.2414 26.3583 77.7347 29.7302C79.8613 31.7828 80.743 34.8101 80.3555 38.7282C80.1661 41.0563 78.4014 45.2524 73.1158 45.2526Z" fill="#383844"/>
<path d="M64.1698 58.4333C63.5333 58.2845 62.8721 58.2724 62.2305 58.3977C61.5889 58.523 60.9818 58.7829 60.4499 59.1598C60.3331 59.2532 60.1989 59.323 60.0549 59.365C59.9109 59.407 59.76 59.4205 59.6107 59.4047C59.3093 59.3728 59.033 59.2236 58.8426 58.9898C58.6522 58.756 58.5633 58.4569 58.5954 58.1582C58.6276 57.8595 58.7782 57.5856 59.0141 57.397C59.8205 56.8047 60.7474 56.3936 61.7303 56.1922C62.7133 55.9909 63.7287 56.0041 64.7059 56.2309C65.9778 56.502 67.1351 57.1533 68.0216 58.097C68.1446 58.2359 68.2313 58.4027 68.274 58.5827C68.3167 58.7626 68.3141 58.9502 68.2664 59.129C68.2187 59.3077 68.1274 59.4721 68.0006 59.6076C67.8737 59.7431 67.7151 59.8456 67.5388 59.9061C67.3261 59.9786 67.0967 59.9878 66.8788 59.9325C66.6609 59.8772 66.4641 59.7599 66.3127 59.595C65.7312 59.0048 64.9849 58.6002 64.1698 58.4333Z" fill="#383844"/>
<path d="M75.2508 59.9135C75.0762 59.8517 74.9195 59.7486 74.7943 59.613C74.6692 59.4774 74.5794 59.3135 74.5329 59.1357C74.4863 58.9579 74.4844 58.7714 74.5272 58.5927C74.57 58.4139 74.6563 58.2482 74.7786 58.1101C75.6662 57.1592 76.8282 56.503 78.1061 56.2309C79.0834 56.0042 80.0988 55.991 81.0817 56.1924C82.0646 56.3938 82.9915 56.8048 83.7979 57.3969C84.0314 57.5864 84.1798 57.8598 84.2107 58.1573C84.2416 58.4549 84.1525 58.7524 83.9628 58.9851C83.7731 59.2178 83.4982 59.3666 83.1982 59.3992C82.8982 59.4318 82.5973 59.3454 82.3613 59.159C81.8294 58.7824 81.2224 58.5229 80.5811 58.3977C79.9397 58.2726 79.2787 58.2847 78.6425 58.4332C77.8202 58.5991 77.0682 59.0084 76.4858 59.6071C76.3338 59.7738 76.1352 59.8919 75.9153 59.9465C75.6954 60.0011 75.4641 59.9896 75.2508 59.9135Z" fill="#383844"/>
<path d="M48.8303 121.683C48.8303 121.673 48.8303 121.663 48.8303 121.652C48.6915 116.618 49.6101 112.575 51.5606 109.636C52.6146 108.049 53.2036 106.202 53.2624 104.303C53.3012 103.026 53.6346 101.775 54.2372 100.646C54.8398 99.5169 55.6955 98.5397 56.7385 97.7894C56.9933 97.6267 57.1724 97.3703 57.2364 97.0766C57.3005 96.783 57.2442 96.4762 57.0799 96.2237C56.9157 95.9712 56.6569 95.7937 56.3606 95.7302C56.0643 95.6668 55.7547 95.7225 55.4999 95.8853C54.1474 96.8366 53.0353 98.0852 52.2507 99.5334C51.4661 100.981 51.0304 102.59 50.9775 104.233C50.9319 105.714 50.4727 107.154 49.6508 108.393C47.4424 111.72 46.3977 116.192 46.5446 121.684L48.8303 121.683Z" fill="#E88B89"/>
<path d="M94.3825 121.683H96.6685C96.8158 116.031 95.8287 111.806 93.5623 108.392C92.7405 107.153 92.2812 105.713 92.2356 104.232C92.1828 102.589 91.7471 100.98 90.9626 99.5322C90.178 98.084 89.0659 96.8354 87.7134 95.8841C87.4586 95.723 87.1499 95.6685 86.8547 95.7324C86.5596 95.7963 86.3019 95.9734 86.1381 96.2251C85.9744 96.4767 85.9178 96.7823 85.9808 97.0752C86.0438 97.368 86.2213 97.6242 86.4744 97.7878C87.5176 98.538 88.3733 99.5153 88.976 100.644C89.5787 101.774 89.9122 103.025 89.9509 104.301C90.0096 106.201 90.5987 108.047 91.6527 109.635C92.912 111.533 94.5654 114.843 94.3829 121.652C94.3827 121.663 94.3825 121.673 94.3825 121.683Z" fill="#E88B89"/>
<path d="M54.5532 67.721C56.3659 67.721 57.8354 66.6808 57.8354 65.3978C57.8354 64.1147 56.3659 63.0745 54.5532 63.0745C52.7405 63.0745 51.271 64.1147 51.271 65.3978C51.271 66.6808 52.7405 67.721 54.5532 67.721Z" fill="#FFABAB"/>
<path d="M88.5001 67.721C90.3128 67.721 91.7823 66.6808 91.7823 65.3978C91.7823 64.1147 90.3128 63.0745 88.5001 63.0745C86.6874 63.0745 85.2179 64.1147 85.2179 65.3978C85.2179 66.6808 86.6874 67.721 88.5001 67.721Z" fill="#FFABAB"/>
</svg>
