<svg width="1920" height="1131" viewBox="0 0 1920 1131" fill="none" xmlns="http://www.w3.org/2000/svg">
<g filter="url(#filter0_d_214_6398)">
<path fill-rule="evenodd" clip-rule="evenodd" d="M453.651 192.837C441.476 169.142 416.79 152.931 388.317 152.931C372.051 152.931 357.02 158.222 344.852 167.176C332.684 158.222 317.654 152.931 301.388 152.931C298.747 152.931 296.138 153.071 293.569 153.343C286.29 146.019 277.477 140.222 267.651 136.476C269.493 130.044 270.479 123.251 270.479 116.228C270.479 75.686 237.614 42.8206 197.072 42.8206C180.589 42.8206 165.374 48.2537 153.121 57.427C143.744 27.6838 115.94 6.11719 83.0983 6.11719C42.5567 6.11719 9.69131 38.9826 9.69131 79.5242C9.69131 84.7509 10.2376 89.8501 11.2761 94.7676H-0.0625V417.183H1311.73C1318.03 418.083 1324.47 418.548 1331.02 418.548C1337.57 418.548 1344.01 418.083 1350.31 417.183H1920.06V171.651H1828.91C1816.75 147.921 1792.04 131.682 1763.54 131.682C1752.49 131.682 1742.01 134.123 1732.61 138.496C1719.27 124.762 1700.61 116.228 1679.95 116.228C1675.86 116.228 1671.85 116.562 1667.94 117.205C1645.85 81.2711 1606.17 57.3089 1560.9 57.3089C1508.16 57.3089 1463.02 89.816 1444.42 135.885C1436.75 133.163 1428.48 131.682 1419.88 131.682C1399.59 131.682 1381.23 139.908 1367.95 153.206C1356.21 149.881 1343.82 148.102 1331.02 148.102C1302.72 148.102 1276.45 156.793 1254.74 171.651H1231.88C1211.56 122.668 1163.27 88.2172 1106.93 88.2172C1066.91 88.2172 1030.95 105.602 1006.2 133.231C987.19 122.41 965.2 116.228 941.766 116.228C908.677 116.228 878.467 128.552 855.476 148.862C850.825 148.359 846.1 148.102 841.315 148.102C813.5 148.102 787.719 156.811 766.55 171.651H743.248C719.651 138.13 680.657 116.228 636.548 116.228C586.199 116.228 542.515 144.764 520.788 186.545L485.183 189.882C483.18 189.718 481.155 189.635 479.11 189.635C472.306 189.635 465.719 190.56 459.466 192.292L453.651 192.837Z" fill="#D8ECFE"/>
</g>
<path fill-rule="evenodd" clip-rule="evenodd" d="M1443.8 1022.97C1448.16 1030.32 1450.67 1038.91 1450.67 1048.08C1450.67 1075.28 1428.62 1097.33 1401.42 1097.33C1375.26 1097.33 1353.86 1076.92 1352.27 1051.15C1343.41 1064.16 1328.47 1072.71 1311.54 1072.71C1310.36 1072.71 1309.19 1072.66 1308.02 1072.58C1300.42 1077.39 1291.4 1080.18 1281.73 1080.18C1268.08 1080.18 1255.72 1074.62 1246.8 1065.65C1245.08 1065.83 1243.33 1065.92 1241.56 1065.92C1230.65 1065.92 1220.56 1062.37 1212.4 1056.37C1204.23 1062.37 1194.15 1065.92 1183.24 1065.92C1163.84 1065.92 1147.05 1054.7 1139.03 1038.39C1133.81 1040.27 1128.19 1041.3 1122.33 1041.3C1113.55 1041.3 1105.31 1039 1098.18 1034.98C1085.43 1067.51 1053.75 1090.55 1016.7 1090.55C983.527 1090.55 954.664 1072.08 939.835 1044.86C924.122 1059.91 902.805 1069.16 879.328 1069.16C876.118 1069.16 872.948 1068.99 869.827 1068.65C854.403 1082.28 834.135 1090.55 811.936 1090.55C796.215 1090.55 781.462 1086.4 768.712 1079.14C752.101 1097.67 727.977 1109.34 701.128 1109.34C659.697 1109.34 624.752 1081.56 613.897 1043.62C597.569 1059.43 575.318 1069.16 550.793 1069.16C542.203 1069.16 533.892 1067.97 526.017 1065.74C517.104 1074.66 504.785 1080.18 491.177 1080.18C485.403 1080.18 479.861 1079.18 474.713 1077.36C462.232 1108.27 431.948 1130.07 396.57 1130.07C366.195 1130.07 339.575 1114 324.755 1089.89C322.133 1090.32 319.442 1090.55 316.698 1090.55C302.838 1090.55 290.316 1084.82 281.366 1075.61C275.061 1078.54 268.03 1080.18 260.616 1080.18C241.771 1080.18 225.398 1069.59 217.119 1054.04C210.113 1057.87 202.075 1060.05 193.528 1060.05C178.008 1060.05 164.165 1052.87 155.139 1041.65C145.158 1051.62 131.38 1057.78 116.163 1057.78C88.053 1057.78 64.8534 1036.75 61.4324 1009.57C57.5167 1010.57 53.4133 1011.11 49.1853 1011.11C21.9865 1011.11 -0.0625 989.059 -0.0625 961.86C-0.0625 934.661 21.9865 912.612 49.1853 912.612C72.5814 912.612 92.167 928.927 97.1863 950.8C103.103 948.632 109.495 947.449 116.163 947.449C131.621 947.449 145.594 953.807 155.609 964.05V908.765H492.693C508.432 895.628 528.689 887.723 550.793 887.723C572.897 887.723 593.155 895.628 608.893 908.765L830.98 908.765C844.831 899.564 861.453 894.203 879.328 894.203C897.202 894.203 913.825 899.564 927.675 908.765L1443.8 908.765V933.622C1454.02 923.262 1468.23 916.841 1483.94 916.841C1505.94 916.841 1524.99 929.43 1534.3 947.797C1541.85 944.564 1550.17 942.774 1558.91 942.774C1593.5 942.774 1621.54 970.816 1621.54 1005.41C1621.54 1040 1593.5 1068.04 1558.91 1068.04C1532.02 1068.04 1509.08 1051.08 1500.21 1027.28C1495.06 1028.83 1489.6 1029.66 1483.94 1029.66C1468.23 1029.66 1454.02 1023.24 1443.8 1012.88V1022.97ZM1670.79 962.437C1643.59 962.437 1621.54 984.486 1621.54 1011.69C1621.54 1038.88 1643.59 1060.93 1670.79 1060.93C1685.41 1060.93 1698.54 1054.56 1707.56 1044.44C1714.44 1071.57 1739.01 1091.64 1768.28 1091.64C1802.87 1091.64 1830.91 1063.6 1830.91 1029.01C1830.91 994.42 1802.87 966.379 1768.28 966.379C1746.83 966.379 1727.9 977.16 1716.61 993.599C1709.4 975.349 1691.6 962.437 1670.79 962.437ZM1888.28 926.379C1853.69 926.379 1825.65 954.42 1825.65 989.01C1825.65 1023.6 1853.69 1051.64 1888.28 1051.64C1922.87 1051.64 1950.91 1023.6 1950.91 989.01C1950.91 954.42 1922.87 926.379 1888.28 926.379Z" fill="#D8ECFE"/>
<defs>
<filter id="filter0_d_214_6398" x="-0.0625" y="0.117188" width="1947.13" height="418.431" filterUnits="userSpaceOnUse" color-interpolation-filters="sRGB">
<feFlood flood-opacity="0" result="BackgroundImageFix"/>
<feColorMatrix in="SourceAlpha" type="matrix" values="0 0 0 0 0 0 0 0 0 0 0 0 0 0 0 0 0 0 127 0" result="hardAlpha"/>
<feOffset dx="25" dy="-4"/>
<feGaussianBlur stdDeviation="1"/>
<feComposite in2="hardAlpha" operator="out"/>
<feColorMatrix type="matrix" values="0 0 0 0 1 0 0 0 0 1 0 0 0 0 1 0 0 0 1 0"/>
<feBlend mode="normal" in2="BackgroundImageFix" result="effect1_dropShadow_214_6398"/>
<feBlend mode="normal" in="SourceGraphic" in2="effect1_dropShadow_214_6398" result="shape"/>
</filter>
</defs>
</svg>
