<svg width="41" height="38" viewBox="0 0 41 38" fill="none" xmlns="http://www.w3.org/2000/svg">
<path d="M17.9595 21.4296C17.9595 19.2852 16.2149 17.5405 14.0704 17.5405C11.926 17.5405 10.1813 19.2852 10.1813 21.4296H12.5417C12.5417 20.5867 13.2275 19.901 14.0704 19.901C14.9133 19.901 15.5991 20.5867 15.5991 21.4296H17.9595Z" fill="black"/>
<path d="M27.6149 17.5405C25.4705 17.5405 23.7258 19.2852 23.7258 21.4296H26.0863C26.0863 20.5867 26.772 19.901 27.6149 19.901C28.4578 19.901 29.1436 20.5867 29.1436 21.4296H31.5041C31.5041 19.2852 29.7595 17.5405 27.6149 17.5405Z" fill="black"/>
<path d="M20.8427 28.3363C19.3503 28.3363 17.9511 27.536 17.1908 26.2476L15.1578 27.4471C16.3406 29.4516 18.5189 30.6967 20.8426 30.6967C23.1663 30.6967 25.3446 29.4516 26.5273 27.4471L24.4944 26.2476C23.7342 27.5359 22.3349 28.3363 20.8427 28.3363Z" fill="black"/>
<path d="M39.4496 17.2491C38.6978 16.4983 37.7538 16.0018 36.7291 15.8074C34.5163 8.9693 28.0972 4.2612 20.8427 4.2612H20.0514C18.1511 4.2612 16.6051 2.71514 16.6051 0.814941H14.2447C14.2447 2.1044 14.6677 3.29657 15.3814 4.2612H14.6336C12.7333 4.2612 11.1873 2.71514 11.1873 0.814941H8.82689C8.82689 3.37961 10.4987 5.55974 12.8093 6.32644C9.15499 8.33547 6.29072 11.6838 4.95635 15.8074C3.93169 16.0018 2.98744 16.4984 2.23507 17.25C1.2452 18.2409 0.700073 19.5576 0.700073 20.9576C0.700073 22.3403 1.2335 23.6449 2.20219 24.6311C2.95926 25.4019 3.91537 25.9105 4.95635 26.1078C7.16904 32.9459 13.5882 37.6539 20.8427 37.6539C28.0972 37.6539 34.5163 32.9459 36.7291 26.1078C37.7701 25.9105 38.7262 25.4019 39.4832 24.6311C40.4519 23.6449 40.9853 22.3403 40.9853 20.9576C40.9853 19.5576 40.4402 18.2409 39.4496 17.2491ZM35.7992 23.839L34.9134 23.8558L34.6821 24.711C32.9971 30.9417 27.3062 35.2934 20.8426 35.2934C14.3791 35.2934 8.6882 30.9418 7.00328 24.711L6.772 23.8558L5.88627 23.839C4.3281 23.8096 3.06045 22.517 3.06045 20.9576C3.06045 20.1876 3.36037 19.4633 3.90398 18.9191C4.43415 18.3895 5.13811 18.09 5.88603 18.076L6.77192 18.0594L7.0032 17.2041C8.6882 10.9734 14.3792 6.62174 20.8427 6.62174C22.976 6.62174 24.7116 8.35729 24.7116 10.4906C24.7116 12.6239 22.976 14.3595 20.8427 14.3595C18.7094 14.3595 16.9738 12.624 16.9738 10.4907H14.6134C14.6134 13.9256 17.4078 16.72 20.8427 16.72C24.2776 16.72 27.072 13.9256 27.072 10.4907C27.072 9.51315 26.8451 8.58794 26.4421 7.76375C30.401 9.44771 33.5103 12.8713 34.6821 17.2041L34.9134 18.0595L35.7993 18.0761C36.5473 18.0901 37.2512 18.3895 37.7805 18.9182C38.3251 19.4634 38.625 20.1877 38.625 20.9576C38.6249 22.5171 37.3572 23.8096 35.7992 23.839Z" fill="black"/>
</svg>
