<svg width="141" height="123" viewBox="0 0 141 123" fill="none" xmlns="http://www.w3.org/2000/svg">
<rect x="0.686523" y="0.869141" width="140" height="121.664" rx="18" fill="#2F80EC"/>
<path d="M30.3972 89.1264C30.3972 89.1264 29.3306 67.2156 57.3487 66.4101L92.5561 94.6958L70.336 109.568C70.336 109.568 61.0832 97.7879 30.3972 89.1264Z" fill="#FFCEC7"/>
<path d="M61.8733 70.0448L60.1903 70.0412C59.4645 70.0412 58.7464 70.191 58.0811 70.4813C57.4159 70.7717 56.8177 71.1963 56.3242 71.7285C55.8306 72.2607 55.4523 72.8892 55.2129 73.5744C54.9734 74.2596 54.8781 74.9869 54.9328 75.7107C55.1211 78.2135 55.6436 80.6799 56.4861 83.0441C52.1697 80.9039 48.6544 79.838 45.889 79.3668C42.457 78.7821 40.1034 82.729 42.2426 85.4757L50.8809 96.5667C65.4201 103.312 70.336 109.567 70.336 109.567L92.5562 94.6958L61.8733 70.0448Z" fill="#E88B89"/>
<path d="M110.412 77.265C110.781 77.4804 111.126 77.7325 111.444 78.0174C112.475 78.9156 113.197 80.1142 113.51 81.4446C113.826 82.8302 113.722 84.2783 113.213 85.6049C112.704 86.9314 111.811 88.0766 110.649 88.8946C109.262 89.8941 107.782 90.7578 106.229 91.4735C104.247 92.3711 102.734 94.0024 101.769 95.9529C98.2921 102.982 90.635 114.754 78.2691 116.36C73.8369 116.935 70.0781 113.021 70.3491 108.56C70.5075 105.97 71.5207 102.891 74.3527 99.6567C74.8485 99.1305 75.3439 98.6274 75.8389 98.1473L85.5993 91.5317C95.3755 85.21 106.573 77.4104 110.412 77.265Z" fill="#FFCEC7"/>
<path d="M102.822 87.8323C102.057 87.833 101.302 87.6686 100.607 87.3504C99.9121 87.0321 99.294 86.5676 98.7952 85.9885L98.4214 85.5559C98.3257 85.448 98.2524 85.3222 98.2058 85.1858C98.1591 85.0494 98.1401 84.9051 98.1496 84.7612C98.1592 84.6174 98.1972 84.4769 98.2615 84.3478C98.3258 84.2188 98.4151 84.1038 98.5242 84.0095C98.6332 83.9152 98.7599 83.8436 98.8969 83.7987C99.0339 83.7537 99.1785 83.7365 99.3222 83.7479C99.4659 83.7592 99.606 83.7991 99.7342 83.865C99.8624 83.9309 99.9762 84.0216 100.069 84.1319L100.443 84.5643C100.97 85.1757 101.713 85.5605 102.516 85.6386C103.32 85.7167 104.122 85.4823 104.758 84.9839L106.032 83.9864C106.259 83.8106 106.547 83.7319 106.833 83.7676C107.118 83.8033 107.378 83.9504 107.555 84.1768C107.732 84.4033 107.813 84.6907 107.779 84.9763C107.745 85.2619 107.6 85.5225 107.374 85.7012L106.1 86.699C105.165 87.4335 104.011 87.8326 102.822 87.8323Z" fill="#E88B89"/>
<path d="M104.178 81.7978C107.196 79.4512 109.436 77.9161 110.41 77.2682C106.662 75.0989 102.683 78.4033 102.683 78.4033L85.6003 91.5307C82.3653 92.7902 79.1126 94.972 75.8405 98.1469C89.4118 101.446 95.6513 92.2123 95.6513 92.2123C95.6513 92.2123 100.078 84.9874 104.178 81.7978Z" fill="#E88B89"/>
<path d="M70.9899 49.966C71.0169 48.7051 70.8101 47.4501 70.38 46.2646C69.291 43.3589 65.6714 42.3529 63.1184 44.2325C61.8607 45.1582 60.485 46.6517 59.2409 49.0568C55.7347 55.8357 62.4511 60.178 62.4511 60.178L70.9899 49.966Z" fill="#E88B89"/>
<path d="M112.875 71.0284C116.629 65.0304 119.114 54.9467 106.945 42.8479C94.7759 30.7491 84.707 33.2936 78.7302 37.0821C75.9945 38.8408 73.6521 41.1463 71.8503 43.8537C69.1688 47.8116 65.9122 51.3475 62.1879 54.345C59.9836 56.0734 58.2085 58.2879 57.0013 60.8156C53.7915 67.6862 55.5191 74.4627 57.9331 79.4032C60.6386 84.9359 65.1265 89.3977 70.6748 92.0711C75.6291 94.4564 82.4162 96.1445 89.267 92.895C91.7876 91.6732 93.9918 89.8853 95.7073 87.6709C98.683 83.9294 102.2 80.6523 106.142 77.9477C108.839 76.1303 111.132 73.7745 112.875 71.0284Z" fill="#FFCEC7"/>
<path d="M35.0493 80.9588C34.8937 81.0512 34.7385 81.1468 34.5836 81.2457C29.1743 84.7196 28.9889 92.4837 34.1128 96.3663C34.4672 96.6348 34.8368 96.8915 35.2216 97.1363C40.4614 100.469 48.2173 103.512 59.6876 105.046C59.8205 106.728 60.3992 108.344 61.3642 109.727C62.3291 111.111 63.6455 112.212 65.1776 112.918C68.6228 114.543 72.3254 111.256 71.1132 107.645C68.4996 99.867 61.9413 89.2171 46.8361 81.1983C43.1887 79.2623 38.6052 78.8605 35.0493 80.9588Z" fill="#FFCEC7"/>
<path d="M100.105 58.6936C100.039 58.6936 99.9727 58.6924 99.9058 58.6905C98.0683 58.6299 96.3976 57.7561 94.9399 56.0931C94.5303 55.6293 94.1916 55.1075 93.9349 54.5445C92.6813 51.8555 93.8721 49.3662 95.6084 48.0919C97.306 46.8459 99.9776 46.4651 102.119 48.4228C102.187 48.4853 102.256 48.5507 102.325 48.619C102.426 48.72 102.506 48.8399 102.561 48.9719C102.616 49.104 102.645 49.2455 102.645 49.3885C102.645 49.5316 102.617 49.6732 102.563 49.8054C102.508 49.9377 102.428 50.0578 102.327 50.1591C102.226 50.2604 102.106 50.3408 101.974 50.3958C101.842 50.4507 101.7 50.4791 101.557 50.4793C101.414 50.4796 101.273 50.4516 101.141 50.3971C101.008 50.3426 100.888 50.2626 100.787 50.1616C100.742 50.1165 100.696 50.0727 100.65 50.0307C99.3345 48.8281 97.8064 49.1803 96.897 49.8478C95.9523 50.5408 95.1264 51.9466 95.9089 53.624C96.0697 53.9799 96.2798 54.3113 96.5332 54.6085C96.5449 54.6206 96.5566 54.6332 96.5679 54.6459C97.6115 55.8408 98.7542 56.4691 99.964 56.5131C102.138 56.5936 103.954 54.8182 103.973 54.8004C106.105 52.6681 107.158 50.418 107.101 48.1141C107.008 44.3612 103.999 41.5932 103.969 41.5654C103.756 41.3717 103.629 41.1019 103.615 40.8148C103.601 40.5277 103.701 40.2466 103.893 40.0328C104.085 39.819 104.354 39.6899 104.641 39.6736C104.928 39.6573 105.21 39.7552 105.425 39.9458C105.577 40.0822 109.15 43.3397 109.278 48.0373C109.357 50.9691 108.09 53.7632 105.511 56.3418C105.416 56.4386 103.131 58.6934 100.105 58.6936Z" fill="#383844"/>
<path d="M81.5856 66.0289C81.4444 66.0289 81.3045 66.0013 81.1739 65.9477C75.0456 63.4429 75.6299 58.6576 75.6584 58.455C75.7033 58.1748 75.8558 57.9231 76.0835 57.7536C76.3112 57.5842 76.5961 57.5103 76.8774 57.5477C77.1588 57.5852 77.4144 57.731 77.5898 57.9542C77.7652 58.1773 77.8466 58.4601 77.8166 58.7423C77.799 58.9007 77.504 62.0951 81.9974 63.9315C82.2313 64.0269 82.4248 64.2006 82.5447 64.4229C82.6646 64.6451 82.7035 64.9022 82.6548 65.15C82.6061 65.3979 82.4727 65.6211 82.2775 65.7814C82.0824 65.9417 81.8375 66.0292 81.585 66.0289H81.5856Z" fill="#383844"/>
<path d="M93.5919 76.2224C93.5164 76.2224 93.4412 76.2145 93.3674 76.1988C86.8878 74.8403 86.6001 70.0279 86.5912 69.8232C86.5806 69.5368 86.6833 69.2578 86.877 69.0466C87.0707 68.8355 87.3399 68.7092 87.6261 68.6951C87.9123 68.6811 88.1925 68.7804 88.406 68.9716C88.6195 69.1628 88.749 69.4304 88.7664 69.7165C88.7777 69.8749 89.0634 73.0706 93.8142 74.0667C94.078 74.1218 94.312 74.2727 94.471 74.4902C94.63 74.7077 94.7027 74.9765 94.675 75.2445C94.6474 75.5126 94.5213 75.7608 94.3213 75.9413C94.1212 76.1218 93.8613 76.2217 93.5919 76.2218V76.2224Z" fill="#383844"/>
<path d="M82.7871 79.4923C82.7673 79.4923 82.7485 79.4923 82.7289 79.4908C76.9752 79.1878 74.1416 74.7302 73.4472 72.4156C73.3679 72.1404 73.4003 71.845 73.5373 71.5934C73.6742 71.3419 73.9048 71.1544 74.179 71.0717C74.4532 70.9889 74.749 71.0175 75.0023 71.1513C75.2556 71.2851 75.4459 71.5132 75.5321 71.7864C75.6001 72.0062 77.2126 77.0193 82.8433 77.3159C83.1264 77.3312 83.3924 77.4563 83.5847 77.6646C83.7771 77.8729 83.8806 78.148 83.8733 78.4315C83.8659 78.7149 83.7484 78.9843 83.5455 79.1824C83.3427 79.3805 83.0706 79.4917 82.7871 79.4923Z" fill="#383844"/>
<path d="M37.3663 37.1605H26.5083C26.2913 37.1605 26.0792 37.0957 25.8993 36.9743C25.7193 36.8529 25.5798 36.6805 25.4985 36.4793C25.4173 36.278 25.398 36.0571 25.4432 35.8448C25.4884 35.6325 25.596 35.4386 25.7522 35.2879L34.6701 26.684H26.5083C26.2195 26.684 25.9425 26.5692 25.7383 26.365C25.5341 26.1608 25.4193 25.8838 25.4193 25.595C25.4193 25.3061 25.5341 25.0292 25.7383 24.8249C25.9425 24.6207 26.2195 24.506 26.5083 24.506H37.3663C37.5833 24.506 37.7954 24.5708 37.9753 24.6922C38.1552 24.8136 38.2948 24.986 38.3761 25.1872C38.4573 25.3885 38.4766 25.6094 38.4314 25.8217C38.3862 26.034 38.2786 26.2279 38.1224 26.3787L29.2053 34.9825H37.3663C37.6551 34.9825 37.9321 35.0973 38.1363 35.3015C38.3405 35.5057 38.4553 35.7827 38.4553 36.0715C38.4553 36.3604 38.3405 36.6374 38.1363 36.8416C37.9321 37.0458 37.6551 37.1605 37.3663 37.1605Z" fill="#6B70A3"/>
<path d="M52.04 48.7319H43.6197C43.4026 48.7319 43.1905 48.667 43.0106 48.5456C42.8307 48.4242 42.6911 48.2519 42.6099 48.0506C42.5286 47.8493 42.5093 47.6284 42.5545 47.4161C42.5997 47.2038 42.7073 47.0099 42.8635 46.8592L49.344 40.6063H43.6197C43.3308 40.6063 43.0538 40.4916 42.8496 40.2874C42.6454 40.0832 42.5307 39.8062 42.5307 39.5173C42.5307 39.2285 42.6454 38.9515 42.8496 38.7473C43.0538 38.5431 43.3308 38.4283 43.6197 38.4283H52.041C52.258 38.4283 52.4701 38.4932 52.6501 38.6146C52.83 38.736 52.9695 38.9084 53.0508 39.1096C53.1321 39.3109 53.1513 39.5318 53.1061 39.7441C53.0609 39.9564 52.9533 40.1503 52.7972 40.301L46.3166 46.5539H52.041C52.3298 46.5539 52.6068 46.6686 52.811 46.8728C53.0153 47.0771 53.13 47.354 53.13 47.6429C53.13 47.9317 53.0153 48.2087 52.811 48.4129C52.6068 48.6171 52.3298 48.7319 52.041 48.7319H52.04Z" fill="#6B70A3"/>
<path d="M39.3249 60.1064H32.2941C32.0771 60.1063 31.865 60.0414 31.6851 59.92C31.5052 59.7986 31.3657 59.6263 31.2844 59.425C31.2032 59.2238 31.1839 59.0028 31.2291 58.7906C31.2743 58.5783 31.3819 58.3844 31.5381 58.2337L36.6283 53.3233H32.2941C32.0053 53.3233 31.7283 53.2085 31.524 53.0043C31.3198 52.8001 31.2051 52.5231 31.2051 52.2343C31.2051 51.9455 31.3198 51.6685 31.524 51.4642C31.7283 51.26 32.0053 51.1453 32.2941 51.1453H39.3249C39.5419 51.1453 39.754 51.2101 39.9339 51.3315C40.1138 51.4529 40.2534 51.6253 40.3347 51.8265C40.4159 52.0278 40.4352 52.2487 40.39 52.461C40.3448 52.6733 40.2372 52.8673 40.081 53.018L34.9908 57.9284H39.3249C39.6137 57.9284 39.8907 58.0431 40.0949 58.2473C40.2991 58.4516 40.4139 58.7285 40.4139 59.0174C40.4139 59.3062 40.2991 59.5832 40.0949 59.7874C39.8907 59.9916 39.6137 60.1064 39.3249 60.1064Z" fill="#6B70A3"/>
<path d="M69.7689 65.1298C70.6258 64.2423 70.3132 62.5504 69.0707 61.3507C67.8282 60.1511 66.1263 59.898 65.2695 60.7855C64.4126 61.6729 64.7252 63.3649 65.9677 64.5645C67.2102 65.7641 68.9121 66.0172 69.7689 65.1298Z" fill="#FFABAB"/>
<path d="M92.642 87.1646C93.4988 86.2771 93.1862 84.5852 91.9437 83.3856C90.7012 82.1859 88.9994 81.9329 88.1425 82.8203C87.2857 83.7078 87.5983 85.3997 88.8408 86.5993C90.0833 87.799 91.7851 88.0521 92.642 87.1646Z" fill="#FFABAB"/>
</svg>
